<?xml version="1.0" standalone="no"?>
<!DOCTYPE svg PUBLIC "-//W3C//DTD SVG 20010904//EN"
 "http://www.w3.org/TR/2001/REC-SVG-20010904/DTD/svg10.dtd">
<svg version="1.0" xmlns="http://www.w3.org/2000/svg"
 width="215.000000pt" height="222.000000pt" viewBox="0 0 215.000000 222.000000"
 preserveAspectRatio="xMidYMid meet">

<g transform="translate(0.000000,222.000000) scale(0.100000,-0.100000)"
fill="#000000" stroke="none">
<path d="M704 2076 c-166 -51 -313 -100 -328 -109 -58 -38 -61 -51 -66 -306
l-5 -235 -97 -16 c-104 -17 -143 -36 -166 -83 -11 -22 -6 -59 34 -269 25 -134
53 -254 61 -266 22 -35 73 -53 127 -46 46 7 46 6 46 -23 0 -39 27 -127 56
-183 84 -163 298 -330 578 -451 139 -60 122 -62 319 33 174 84 278 156 387
267 108 109 151 182 171 294 l13 69 42 -7 c54 -8 108 14 128 52 16 33 96 440
96 494 0 38 -20 73 -53 91 -12 7 -65 19 -117 28 l-95 16 -5 229 c-5 249 -11
275 -66 311 -13 9 -163 59 -332 110 -246 75 -319 93 -367 93 -46 0 -130 -22
-361 -93z m-1 -218 l15 -43 18 43 c13 32 22 42 41 42 22 0 23 -3 23 -75 0 -68
-2 -75 -20 -75 -16 0 -20 7 -21 38 l-1 37 -12 -35 c-18 -51 -41 -50 -59 2
l-15 43 -1 -42 c-1 -31 -5 -43 -16 -43 -12 0 -15 15 -15 75 0 73 1 75 24 75
20 0 27 -8 39 -42z m153 31 c3 -6 0 -15 -7 -20 -10 -6 -11 -9 -1 -9 8 0 12
-18 12 -55 0 -49 -2 -55 -20 -55 -19 0 -20 6 -19 75 1 55 5 75 15 75 7 0 16
-5 20 -11z m574 -3 c0 -8 -8 -17 -17 -19 -14 -4 -12 -5 5 -6 12 0 22 4 22 9 0
15 29 12 46 -4 16 -17 19 -36 4 -36 -5 0 -10 -11 -10 -25 0 -14 5 -25 10 -25
6 0 10 -7 10 -15 0 -18 -31 -20 -48 -3 -7 7 -12 25 -12 40 0 21 -5 28 -20 28
-17 0 -20 -7 -20 -40 0 -29 -4 -40 -15 -40 -11 0 -15 11 -15 40 0 22 -4 40
-10 40 -5 0 -10 7 -10 15 0 8 4 15 9 15 5 0 11 9 14 20 6 24 57 29 57 6z
m-395 -38 c6 -4 17 -3 25 3 22 13 56 11 69 -5 10 -12 16 -12 40 2 28 15 61 12
61 -8 0 -5 -10 -10 -22 -11 l-23 0 23 -11 c26 -13 30 -53 6 -62 -27 -10 -53
-7 -62 10 -8 14 -10 14 -21 0 -21 -25 -68 -20 -87 9 -8 13 -13 29 -9 36 5 7 1
10 -11 7 -13 -2 -20 -13 -22 -34 -3 -30 -5 -31 -55 -32 -59 -1 -77 10 -77 46
0 45 24 60 93 58 34 -1 67 -4 72 -8z m299 -4 c36 -35 9 -94 -43 -94 -36 0 -51
17 -51 57 0 49 59 72 94 37z m-616 -183 c3 -10 0 -12 -13 -7 -22 8 -45 -10
-45 -35 0 -20 28 -39 48 -32 18 7 15 -14 -4 -21 -27 -10 -64 21 -64 54 0 46
65 80 78 41z m102 4 c0 -8 -9 -15 -20 -15 -11 0 -20 -4 -20 -10 0 -5 9 -10 20
-10 11 0 20 -4 20 -10 0 -5 -9 -10 -20 -10 -11 0 -20 -4 -20 -10 0 -5 9 -10
19 -10 11 0 23 -4 26 -10 4 -6 -8 -10 -29 -10 l-36 0 0 48 c0 27 3 52 7 55 13
13 53 7 53 -8z m89 8 c20 -5 22 -11 18 -38 -3 -18 0 -38 6 -44 6 -6 7 -14 3
-18 -4 -4 -16 3 -26 17 l-20 25 0 -22 c0 -14 -6 -23 -15 -23 -11 0 -15 12 -15
48 0 63 4 67 49 55z m126 -3 c3 -6 -1 -13 -9 -16 -11 -4 -16 -19 -16 -45 0
-21 -4 -39 -10 -39 -5 0 -10 18 -10 39 0 26 -5 41 -16 45 -23 9 -7 26 26 26
16 0 32 -5 35 -10z m65 -51 c0 -37 -4 -49 -15 -49 -11 0 -15 12 -15 48 0 27 3
52 6 55 15 14 24 -7 24 -54z m100 46 c0 -8 -9 -15 -20 -15 -11 0 -20 -4 -20
-10 0 -5 9 -10 20 -10 11 0 20 -4 20 -10 0 -5 -9 -10 -20 -10 -13 0 -20 -7
-20 -20 0 -11 -4 -20 -10 -20 -11 0 -14 93 -3 103 13 13 53 7 53 -8z m60 -40
c0 -30 -4 -55 -10 -55 -11 0 -14 93 -3 103 12 12 13 8 13 -48z m105 44 c4 -6
-2 -13 -14 -16 -24 -6 -28 -23 -6 -23 8 0 15 -4 15 -10 0 -5 -7 -10 -15 -10
-8 0 -15 -4 -15 -10 0 -5 6 -10 14 -10 8 0 18 -4 21 -10 4 -6 -7 -10 -24 -10
-31 0 -31 0 -31 55 0 52 1 55 24 55 14 0 28 -5 31 -11z m123 -16 c28 -38 2
-83 -49 -83 -29 0 -29 1 -29 56 l0 57 33 -7 c17 -3 38 -14 45 -23z m42 -233
c69 -6 204 -22 300 -36 213 -30 226 -36 224 -115 -2 -83 -74 -436 -93 -461
-22 -27 -41 -27 -236 0 -237 32 -391 42 -653 42 -274 0 -450 -12 -687 -45
-154 -22 -172 -23 -193 -9 -13 8 -25 21 -28 27 -2 7 -24 115 -48 241 -48 248
-48 265 3 285 52 21 385 65 621 81 155 11 622 5 790 -10z m-614 -795 l18 -55
60 0 c67 -1 68 2 -8 -55 -26 -20 -26 -20 -11 -69 21 -69 20 -71 -22 -39 -58
45 -58 45 -107 7 -50 -38 -54 -33 -30 36 15 44 15 44 -10 62 -13 10 -35 27
-48 38 l-23 19 61 1 60 0 18 55 c9 30 19 55 21 55 2 0 12 -25 21 -55z m427
-55 c68 -1 69 1 -8 -55 l-28 -21 16 -49 c9 -26 15 -51 12 -53 -3 -3 -25 9 -49
26 l-44 32 -41 -30 c-40 -29 -68 -39 -56 -20 3 5 12 29 19 54 l14 44 -47 34
-46 33 59 5 c63 5 57 -2 91 95 6 16 11 9 27 -37 l20 -58 61 0z"/>
<path d="M914 1815 c-8 -19 5 -37 21 -31 8 3 16 0 19 -7 2 -7 5 2 5 18 1 24
-3 31 -20 32 -11 1 -22 -4 -25 -12z"/>
<path d="M1087 1824 c-11 -11 -8 -44 3 -44 15 0 24 30 13 41 -5 5 -12 6 -16 3z"/>
<path d="M1150 1799 c0 -11 25 -22 39 -17 6 1 -1 8 -14 15 -14 6 -25 7 -25 2z"/>
<path d="M1287 1824 c-11 -11 -8 -44 3 -44 15 0 24 30 13 41 -5 5 -12 6 -16 3z"/>
<path d="M890 1640 c0 -5 5 -10 10 -10 6 0 10 5 10 10 0 6 -4 10 -10 10 -5 0
-10 -4 -10 -10z"/>
<path d="M1430 1620 c0 -23 5 -30 19 -30 20 0 37 32 26 50 -3 5 -15 10 -26 10
-14 0 -19 -7 -19 -30z"/>
<path d="M733 1220 c-23 -9 -40 -51 -28 -70 3 -5 24 -19 46 -30 21 -11 39 -25
39 -30 0 -13 -37 -22 -61 -15 -17 6 -20 3 -17 -12 4 -24 61 -30 94 -8 38 25
29 64 -19 90 -46 25 -46 51 2 48 25 -1 31 2 27 14 -3 8 -6 17 -6 19 0 7 -54 3
-77 -6z"/>
<path d="M882 1207 c-43 -45 -30 -136 20 -153 70 -23 128 17 128 87 0 54 -34
89 -88 89 -27 0 -45 -7 -60 -23z m90 -24 c34 -30 16 -103 -25 -103 -33 0 -47
19 -47 60 0 57 34 77 72 43z"/>
<path d="M1085 1204 c-32 -34 -33 -91 -4 -128 17 -22 28 -26 70 -26 41 0 49 3
49 18 0 15 -6 18 -30 14 -38 -6 -70 21 -70 58 0 37 32 64 70 58 24 -4 30 -1
30 14 0 15 -8 18 -45 18 -37 0 -51 -5 -70 -26z"/>
<path d="M1240 1140 c0 -83 1 -90 20 -90 19 0 20 7 20 90 0 83 -1 90 -20 90
-19 0 -20 -7 -20 -90z"/>
<path d="M1383 1221 c-5 -3 -24 -42 -41 -85 -25 -61 -29 -82 -20 -88 8 -5 19
-1 29 11 26 31 74 32 84 1 6 -18 45 -30 45 -14 0 3 -11 43 -25 89 -25 80 -45
105 -72 86z m31 -83 c5 -24 3 -28 -14 -28 -21 0 -24 10 -14 48 8 27 19 19 28
-20z"/>
<path d="M572 1204 c-35 -24 -26 -64 20 -89 21 -11 38 -26 38 -32 0 -13 -5
-15 -47 -17 -27 -1 -32 -16 -10 -30 22 -14 94 10 102 33 9 29 -5 50 -47 72
-45 23 -45 44 0 44 24 0 32 4 32 17 0 23 -56 24 -88 2z"/>
<path d="M1490 1206 c0 -8 10 -16 23 -18 21 -3 22 -8 22 -78 0 -63 3 -75 18
-78 13 -3 17 3 17 26 0 16 3 50 6 76 6 40 10 46 30 46 45 0 26 27 -22 34 -72
9 -94 8 -94 -8z"/>
<path d="M1666 1168 c-3 -24 -7 -65 -8 -93 l-3 -50 53 -3 c42 -2 52 0 52 12 0
11 -9 16 -28 16 -35 0 -41 6 -35 30 4 15 11 18 35 13 26 -5 29 -3 26 13 -2 12
-13 20 -31 22 -19 2 -27 9 -27 24 0 17 5 20 35 16 29 -3 35 -1 35 14 0 14 -8
18 -34 18 -19 0 -41 3 -49 6 -12 4 -17 -5 -21 -38z"/>
<path d="M383 1113 c-12 -48 -19 -91 -17 -95 7 -12 44 10 44 26 0 23 50 26 71
5 11 -11 28 -19 39 -19 18 0 16 8 -22 85 -37 74 -46 85 -68 85 -24 0 -27 -6
-47 -87z m77 -10 c0 -7 -9 -13 -20 -13 -21 0 -24 10 -13 49 l6 23 13 -23 c7
-13 13 -30 14 -36z"/>
</g>
</svg>
