<?xml version="1.0" standalone="no"?>
<!DOCTYPE svg PUBLIC "-//W3C//DTD SVG 20010904//EN"
 "http://www.w3.org/TR/2001/REC-SVG-20010904/DTD/svg10.dtd">
<svg version="1.0" xmlns="http://www.w3.org/2000/svg"
 width="211.000000pt" height="217.000000pt" viewBox="0 0 211.000000 217.000000"
 preserveAspectRatio="xMidYMid meet">

<g transform="translate(0.000000,217.000000) scale(0.100000,-0.100000)"
fill="#000000" stroke="none">
<path d="M693 2046 c-165 -51 -313 -100 -327 -109 -58 -38 -61 -51 -66 -306
l-5 -235 -103 -17 c-113 -19 -155 -43 -165 -97 -7 -34 81 -491 100 -520 21
-34 73 -53 126 -46 l44 6 6 -48 c23 -200 198 -394 497 -552 52 -27 132 -64
177 -82 l83 -32 57 22 c215 86 395 199 523 329 108 108 151 182 172 295 l13
68 42 -7 c53 -8 107 14 126 52 17 32 97 442 97 494 0 39 -20 73 -53 91 -12 6
-65 19 -117 28 l-95 16 -5 229 c-5 249 -11 276 -65 311 -13 8 -163 58 -334
110 -248 75 -321 94 -368 93 -43 -1 -137 -25 -360 -93z m150 -191 c1 -5 -6
-11 -15 -13 -11 -2 -18 3 -18 13 0 17 30 18 33 0z m577 5 c0 -5 -8 -14 -17
-19 -10 -6 -12 -11 -5 -11 14 0 17 -30 2 -30 -5 0 -10 -18 -10 -40 0 -29 -4
-40 -15 -40 -11 0 -15 11 -15 40 0 22 -4 40 -10 40 -5 0 -10 7 -10 15 0 8 4
15 9 15 5 0 11 9 14 20 3 14 14 20 31 20 14 0 26 -4 26 -10z m-727 -37 l15
-38 15 38 c13 29 21 37 42 37 26 0 26 -1 23 -67 -2 -55 -6 -68 -20 -71 -15 -3
-18 4 -19 35 l-1 38 -12 -35 c-18 -51 -41 -50 -59 2 l-15 43 -1 -42 c-1 -31
-5 -43 -16 -43 -12 0 -15 14 -15 70 0 67 1 70 24 70 18 0 27 -9 39 -37z m783
13 c16 -17 19 -36 4 -36 -5 0 -10 -11 -10 -25 0 -14 5 -25 10 -25 6 0 10 -7
10 -15 0 -18 -34 -20 -47 -2 -16 20 -24 89 -11 104 14 17 26 16 44 -1z m-636
-61 c0 -42 -3 -55 -15 -55 -12 0 -15 13 -15 55 0 42 3 55 15 55 12 0 15 -13
15 -55z m98 34 c2 -11 -3 -16 -15 -15 -12 0 -18 -6 -18 -19 0 -13 6 -20 18
-19 10 1 17 -5 17 -17 0 -21 -29 -26 -61 -9 -40 22 -10 105 35 98 12 -2 22
-10 24 -19z m82 1 c0 -10 -7 -20 -15 -24 -9 -3 -15 -18 -15 -36 0 -20 -5 -30
-15 -30 -11 0 -15 13 -15 54 0 54 0 55 30 54 22 -1 30 -6 30 -18z m98 3 c16
-17 18 -17 35 0 20 20 58 19 65 0 2 -8 -6 -13 -20 -14 l-23 0 23 -11 c41 -20
18 -73 -29 -66 -31 4 -37 28 -8 28 22 0 22 0 4 14 -18 13 -21 11 -37 -15 -13
-21 -26 -29 -46 -29 -37 0 -52 17 -52 57 0 49 52 71 88 36z m204 0 c22 -20 23
-51 1 -75 -32 -36 -93 -15 -93 32 0 53 53 79 92 43z m-612 -184 c0 -5 -9 -8
-21 -6 -12 1 -26 -6 -33 -15 -15 -24 4 -54 33 -51 12 2 21 -2 21 -7 0 -15 -56
-12 -69 4 -19 23 -9 69 18 82 24 13 51 9 51 -7z m83 4 c-13 -2 -23 -11 -23
-18 0 -7 10 -16 23 -18 l22 -4 -22 -8 c-13 -4 -23 -13 -23 -20 0 -8 10 -16 23
-18 16 -3 13 -5 -10 -6 l-33 -1 0 50 0 50 33 -1 c23 -1 26 -3 10 -6z m122 -33
c1 -19 4 -41 8 -48 5 -6 4 -12 -2 -12 -6 0 -15 9 -21 20 -14 26 -28 25 -33 -2
-2 -13 -5 1 -6 30 -1 53 -1 53 27 50 24 -3 27 -7 27 -38z m103 33 c-14 -3 -18
-15 -18 -49 0 -24 -4 -44 -10 -44 -5 0 -10 20 -10 44 0 34 -4 46 -17 49 -10 3
2 5 27 5 25 0 37 -2 28 -5z m59 -70 c-2 -16 -4 -3 -4 27 0 30 2 43 4 28 2 -16
2 -40 0 -55z m96 70 c-28 -5 -30 -33 -3 -33 11 0 20 -4 20 -10 0 -5 -9 -10
-20 -10 -13 0 -20 -7 -20 -20 0 -11 -4 -20 -10 -20 -5 0 -10 23 -10 50 l0 50
33 -1 c23 -1 26 -3 10 -6z m77 -43 c0 -27 -4 -50 -10 -50 -5 0 -10 23 -10 50
0 28 5 50 10 50 6 0 10 -22 10 -50z m83 40 c-28 -12 -30 -30 -3 -30 11 0 20
-4 20 -10 0 -5 -9 -10 -21 -10 -28 0 -19 -23 12 -31 21 -6 21 -7 -8 -8 -33 -1
-33 -1 -33 49 0 48 1 50 28 49 26 0 26 -1 5 -9z m148 -16 c14 -38 -11 -74 -51
-74 -29 0 -30 1 -30 50 l0 50 35 0 c29 0 37 -5 46 -26z m88 -229 c245 -24 423
-54 451 -74 15 -11 26 -30 28 -48 4 -42 -76 -453 -93 -480 -21 -32 -45 -35
-142 -19 -246 42 -371 51 -748 51 -376 0 -442 -4 -725 -46 -189 -27 -172 -45
-232 252 -51 254 -51 275 -1 298 49 22 431 70 683 85 134 8 631 -4 779 -19z
m-186 -742 l14 -48 54 -5 53 -5 -41 -33 -42 -33 16 -45 c8 -25 13 -47 11 -49
-2 -3 -23 9 -45 25 l-40 30 -39 -30 c-21 -16 -42 -30 -46 -30 -3 0 1 23 10 51
l16 51 -24 18 c-71 53 -70 49 -8 50 l56 0 12 38 c6 20 13 43 15 50 7 22 14 13
28 -35z m-608 -12 l16 -50 52 -3 52 -3 -41 -30 -42 -29 14 -39 c23 -66 18 -71
-30 -36 l-45 32 -42 -34 c-47 -37 -44 -42 -24 47 6 28 3 34 -36 62 l-43 32 57
0 56 0 12 43 c19 72 22 73 44 8z m306 -99 l16 -47 59 -5 59 -5 -47 -34 -46
-33 18 -54 c11 -30 16 -54 11 -54 -4 0 -26 14 -49 31 l-41 30 -46 -31 c-26
-18 -48 -30 -51 -28 -2 3 3 24 11 48 8 23 15 46 15 51 0 4 -21 24 -46 44 l-47
35 61 0 61 0 17 55 c10 30 20 52 23 49 3 -3 13 -26 22 -52z"/>
<path d="M1066 1783 c-9 -22 10 -41 25 -26 13 13 5 43 -10 43 -5 0 -12 -8 -15
-17z"/>
<path d="M1276 1793 c-12 -12 -6 -43 9 -43 8 0 15 9 15 19 0 21 -13 34 -24 24z"/>
<path d="M870 1616 c0 -9 7 -16 16 -16 17 0 14 22 -4 28 -7 2 -12 -3 -12 -12z"/>
<path d="M1420 1590 c0 -22 4 -40 9 -40 12 0 41 29 41 40 0 11 -29 40 -41 40
-5 0 -9 -18 -9 -40z"/>
<path d="M1090 1111 l0 -101 60 0 c47 0 60 3 60 15 0 11 -11 15 -40 15 -36 0
-40 3 -40 25 0 22 4 25 35 25 24 0 35 5 35 15 0 10 -11 15 -35 15 -31 0 -35 3
-35 25 0 22 4 25 35 25 24 0 35 5 35 15 0 10 -10 15 -32 15 -18 0 -43 3 -55 6
-23 6 -23 5 -23 -95z"/>
<path d="M701 1178 c7 -13 20 -35 31 -50 18 -26 18 -27 -12 -77 l-29 -51 24 0
c19 0 30 9 42 35 9 19 20 35 23 35 3 0 14 -16 23 -35 13 -26 23 -35 42 -35 14
0 25 3 25 6 0 3 -14 25 -30 49 l-31 44 26 51 25 50 -23 0 c-17 0 -28 -10 -41
-37 l-18 -38 -19 38 c-15 28 -26 37 -45 37 -22 0 -24 -2 -13 -22z"/>
<path d="M900 1105 c0 -95 0 -95 25 -95 21 0 25 5 25 28 0 24 6 30 42 42 53
19 70 55 44 94 -15 23 -23 26 -76 26 l-60 0 0 -95z m95 35 c0 -18 -6 -26 -22
-28 -20 -3 -23 1 -23 28 0 27 3 31 23 28 16 -2 22 -10 22 -28z"/>
<path d="M1250 1110 c0 -49 -1 -93 -2 -97 -2 -5 7 -9 20 -11 20 -3 22 1 22 37
0 23 4 41 10 41 5 0 22 -18 36 -40 19 -28 34 -40 51 -40 26 0 25 4 -13 56 -23
31 -23 32 -4 49 48 44 9 95 -72 95 l-48 0 0 -90z m89 46 c9 -11 8 -18 -5 -30
-22 -22 -38 -15 -42 17 -3 21 1 27 16 27 11 0 25 -6 31 -14z"/>
<path d="M1427 1194 c-17 -17 -5 -34 23 -34 l30 0 -6 -80 c-6 -69 -5 -80 10
-86 26 -10 30 1 34 82 l4 74 29 0 c22 0 29 5 29 20 0 18 -7 20 -59 20 -33 0
-66 2 -73 5 -8 3 -17 2 -21 -1z"/>
<path d="M540 1128 c0 -35 3 -80 6 -100 6 -33 10 -38 34 -38 49 0 90 12 90 26
0 10 -13 14 -41 14 -36 0 -40 2 -37 23 2 16 11 23 31 25 41 5 35 32 -8 32 -28
0 -35 4 -35 19 0 20 18 31 51 31 10 0 19 7 19 15 0 12 -13 15 -55 15 l-55 0 0
-62z"/>
</g>
</svg>
