<?xml version="1.0" standalone="no"?>
<!DOCTYPE svg PUBLIC "-//W3C//DTD SVG 20010904//EN"
 "http://www.w3.org/TR/2001/REC-SVG-20010904/DTD/svg10.dtd">
<svg version="1.0" xmlns="http://www.w3.org/2000/svg"
 width="149.000000pt" height="165.000000pt" viewBox="0 0 149.000000 165.000000"
 preserveAspectRatio="xMidYMid meet">

<g transform="translate(0.000000,165.000000) scale(0.100000,-0.100000)"
fill="#000000" stroke="none">
<path d="M570 1523 c-91 -52 -243 -140 -337 -195 l-173 -100 0 -143 c0 -78 -3
-256 -6 -396 l-7 -254 94 -54 c102 -59 245 -142 461 -269 l138 -81 207 121
c115 66 255 149 313 183 58 35 120 70 138 79 l32 17 0 158 c0 87 -3 266 -7
399 l-6 242 -36 21 c-20 12 -156 91 -304 175 -147 85 -282 163 -300 174 -17
11 -34 20 -37 19 -3 0 -79 -43 -170 -96z m224 -89 c24 -9 20 -21 -29 -77 -30
-34 -47 -66 -54 -96 -10 -44 -9 -47 21 -74 48 -42 102 -25 171 54 39 45 48 51
61 39 28 -22 18 -62 -26 -109 -33 -34 -57 -49 -121 -70 l-79 -27 -53 -132 -53
-132 216 0 c216 0 217 0 271 -28 77 -39 114 -94 119 -178 6 -86 -16 -141 -74
-192 -50 -45 -116 -67 -172 -59 -207 31 -639 110 -662 122 -99 51 -120 192
-41 278 96 106 341 428 341 449 2 70 26 137 69 187 42 49 61 58 95 45z"/>
<path d="M654 1115 c-10 -15 -29 -39 -42 -53 -12 -15 -42 -52 -65 -82 -23 -30
-62 -80 -86 -110 l-45 -55 74 -3 c40 -2 76 1 80 5 4 4 33 74 65 156 40 100 55
151 49 157 -7 7 -17 2 -30 -15z"/>
<path d="M567 734 c3 -8 9 -14 15 -14 5 0 6 5 3 10 -3 6 -1 10 4 10 6 0 11 -7
11 -15 0 -8 -4 -15 -10 -15 -5 0 -10 -5 -10 -11 0 -6 7 -9 15 -5 13 4 14 2 5
-14 -6 -11 -10 -40 -9 -64 2 -27 -4 -53 -14 -69 -15 -24 -15 -25 6 -31 21 -6
21 -7 4 -20 -16 -12 -11 -14 40 -21 32 -5 67 -7 78 -6 11 1 40 -5 64 -14 24
-8 47 -12 50 -9 3 4 0 9 -7 11 -6 3 -10 8 -7 13 3 5 -2 15 -11 24 -10 11 -13
24 -8 38 6 23 6 23 -15 -1 -24 -28 -28 -21 -7 12 8 12 17 40 20 62 3 22 10 56
16 75 12 43 12 43 0 35 -6 -3 -7 1 -3 10 5 13 7 14 14 3 7 -10 12 -10 25 4 16
16 8 17 -129 17 -123 0 -145 -2 -140 -15z m57 -9 c-4 -8 -8 -15 -10 -15 -2 0
-4 7 -4 15 0 8 4 15 10 15 5 0 7 -7 4 -15z m109 -12 c-18 -2 -48 -2 -65 0 -18
2 -4 4 32 4 36 0 50 -2 33 -4z m-100 -33 c-3 -11 -7 -20 -9 -20 -2 0 -4 9 -4
20 0 11 4 20 9 20 5 0 7 -9 4 -20z m-20 -55 c4 -27 3 -35 -3 -25 -5 8 -10 28
-10 44 0 39 6 30 13 -19z m134 -2 c-3 -10 -5 -4 -5 12 0 17 2 24 5 18 2 -7 2
-21 0 -30z m-20 -10 c-3 -10 -5 -4 -5 12 0 17 2 24 5 18 2 -7 2 -21 0 -30z
m-90 -45 c-3 -7 -5 -2 -5 12 0 14 2 19 5 13 2 -7 2 -19 0 -25z m117 8 c-5 -14
-34 -31 -34 -20 0 8 24 33 32 34 4 0 5 -6 2 -14z m-124 -41 c0 -8 -4 -15 -10
-15 -5 0 -7 7 -4 15 4 8 8 15 10 15 2 0 4 -7 4 -15z m57 -11 c-3 -3 -12 -4
-19 -1 -8 3 -5 6 6 6 11 1 17 -2 13 -5z m-40 -19 c0 -8 -4 -12 -9 -9 -5 3 -6
10 -3 15 9 13 12 11 12 -6z m92 -7 c13 -22 13 -22 -5 -6 -12 10 -30 15 -49 12
-28 -3 -28 -3 -5 5 39 14 44 13 59 -11z m-36 -15 c-7 -2 -19 -2 -25 0 -7 3 -2
5 12 5 14 0 19 -2 13 -5z m87 -3 c0 -5 -4 -10 -10 -10 -5 0 -10 5 -10 10 0 6
5 10 10 10 6 0 10 -4 10 -10z"/>
<path d="M954 730 c-47 -20 -63 -39 -44 -50 8 -5 8 -10 2 -14 -5 -3 -13 2 -17
12 -12 32 -39 -37 -39 -103 -1 -48 4 -66 24 -93 13 -18 30 -30 38 -27 7 2 10
1 7 -4 -6 -11 6 -20 37 -28 64 -16 121 -6 144 25 8 9 14 13 14 8 0 -4 8 2 19
15 10 13 16 30 13 38 -3 9 -1 12 6 7 7 -4 12 -1 12 8 0 9 -3 15 -7 15 -5 -1
-14 -1 -22 0 -16 1 -5 16 12 16 24 0 32 53 14 90 -20 42 -42 47 -33 8 l6 -28
-14 25 c-13 22 -13 26 1 34 23 12 -4 27 -37 19 -24 -5 -25 -5 -5 11 19 15 19
16 1 9 -13 -4 -17 -3 -12 5 4 7 3 12 -3 12 -15 0 -23 -18 -9 -22 8 -3 6 -7 -4
-11 -13 -4 -16 -1 -12 19 4 21 1 24 -23 23 -16 0 -47 -9 -69 -19z m62 -5 c-11
-8 -27 -15 -35 -15 -10 1 -7 6 9 15 33 19 50 18 26 0z m-68 -16 c-10 -5 -18
-15 -18 -21 0 -7 4 -7 13 0 7 5 21 6 32 1 28 -11 37 -11 30 1 -3 6 -1 10 4 10
6 0 11 -4 11 -8 0 -4 9 -8 19 -8 11 0 17 4 15 8 -3 4 -1 8 5 8 5 0 13 -5 17
-11 4 -8 9 -8 17 0 6 6 16 11 22 11 5 0 2 -5 -7 -11 -10 -5 -18 -15 -18 -20 0
-6 4 -8 9 -5 5 3 14 -8 20 -24 5 -17 7 -30 4 -30 -3 0 0 -7 7 -15 7 -8 16 -12
21 -9 5 3 9 0 9 -5 0 -6 -6 -11 -14 -11 -22 0 -29 -19 -14 -37 10 -13 10 -15
0 -9 -16 9 -53 -33 -47 -54 3 -8 1 -21 -4 -28 -6 -10 -10 -10 -21 3 -11 13
-10 15 4 9 9 -3 16 -2 16 4 0 18 -34 24 -46 8 -15 -21 -25 -20 -17 1 5 13 2
15 -11 10 -10 -4 -22 -7 -28 -7 -6 0 -8 -8 -4 -17 4 -15 3 -14 -7 1 -7 11 -19
27 -28 36 -17 18 -33 51 -31 63 1 4 -2 7 -8 7 -13 0 -13 37 1 42 5 2 7 11 4
21 -4 9 -11 15 -15 12 -5 -3 -11 -1 -15 5 -8 13 11 13 35 0 17 -9 19 -7 15 22
-4 33 9 58 29 58 6 0 3 -5 -6 -11z m-68 -99 c0 -5 -5 -10 -11 -10 -5 0 -7 5
-4 10 3 6 8 10 11 10 2 0 4 -4 4 -10z m-13 -42 c-3 -8 -6 -5 -6 6 -1 11 2 17
5 13 3 -3 4 -12 1 -19z m37 -70 c-4 -14 -2 -18 5 -14 6 4 11 2 11 -3 0 -17
-14 -13 -34 10 -14 17 -15 23 -5 30 19 11 31 0 23 -23z m246 -4 c0 -2 -7 -4
-15 -4 -8 0 -15 4 -15 10 0 5 7 7 15 4 8 -4 15 -8 15 -10z m-35 -22 c-3 -3
-11 0 -18 7 -9 10 -8 11 6 5 10 -3 15 -9 12 -12z m-162 -21 c3 -13 1 -18 -9
-14 -7 2 -10 11 -7 19 7 19 10 18 16 -5z"/>
<path d="M546 501 c-4 -5 3 -7 14 -4 23 6 26 13 6 13 -8 0 -17 -4 -20 -9z"/>
</g>
</svg>
