<svg xmlns="http://www.w3.org/2000/svg" viewBox="0 0 24 24" fill="#2496ED">
  <path d="M13.983 11.078h2.119a.186.186 0 0 0 .186-.185V8.888a.186.186 0 0 0-.186-.186h-2.119v2.376zm-3.954 0h2.119V8.888H10.03a.186.186 0 0 0-.186.186v2.004c0 .102.084.186.186.186zm-3.97 0h2.12V8.888H6.06a.186.186 0 0 0-.186.186v2.004c0 .102.084.186.186.186zm-3.97 0h2.12V8.888H2.09a.186.186 0 0 0-.186.186v2.004c0 .102.084.186.186.186zm12.91-3.97h2.12V5.918h-2.12a.186.186 0 0 0-.186.186v2.004c0 .102.084.186.186.186zm-3.97 0h2.12V5.918h-2.12a.186.186 0 0 0-.186.186v2.004c0 .102.084.186.186.186zm-3.97 0h2.12V5.918H6.06a.186.186 0 0 0-.186.186v2.004c0 .102.084.186.186.186zm-3.97 0h2.12V5.918H2.09a.186.186 0 0 0-.186.186v2.004c0 .102.084.186.186.186zm12.91-3.97h2.12V1.948h-2.12a.186.186 0 0 0-.186.186v2.004c0 .102.084.186.186.186zm-3.97 0h2.12V1.948h-2.12a.186.186 0 0 0-.186.186v2.004c0 .102.084.186.186.186zm-3.97 0h2.12V1.948H6.06a.186.186 0 0 0-.186.186v2.004c0 .102.084.186.186.186zm-3.97 0h2.12V1.948H2.09a.186.186 0 0 0-.186.186v2.004c0 .102.084.186.186.186z"/>
</svg>
