<svg xmlns="http://www.w3.org/2000/svg" viewBox="0 0 24 24" fill="#3776AB">
  <path d="M12 0C5.373 0 0 5.373 0 12s5.373 12 12 12 12-5.373 12-12S18.627 0 12 0zm-1.5 2.5c.828 0 1.5.672 1.5 1.5s-.672 1.5-1.5 1.5S9 4.828 9 4s.672-1.5 1.5-1.5zm3 0c.828 0 1.5.672 1.5 1.5s-.672 1.5-1.5 1.5S12 4.828 12 4s.672-1.5 1.5-1.5zM12 21c-4.971 0-9-4.029-9-9s4.029-9 9-9 9 4.029 9 9-4.029 9-9 9zm-1.5-2.5c-.828 0-1.5-.672-1.5-1.5s.672-1.5 1.5-1.5 1.5.672 1.5 1.5-.672 1.5-1.5 1.5zm3 0c-.828 0-1.5-.672-1.5-1.5s.672-1.5 1.5-1.5 1.5.672 1.5 1.5-.672 1.5-1.5 1.5z"/>
</svg>
