<svg xmlns="http://www.w3.org/2000/svg" viewBox="0 0 24 24" fill="#7B42BC">
  <path d="M14.337 3.567c-.43-.43-1.13-.43-1.56 0-.43.43-.43 1.13 0 1.56l.43.43H9.5c-.6 0-1.1.5-1.1 1.1s.5 1.1 1.1 1.1h3.71l-.43.43c-.43.43-.43 1.13 0 1.56.22.22.5.33.78.33s.56-.11.78-.33l2.22-2.22c.43-.43.43-1.13 0-1.56l-2.22-2.22zm-6.67 16.87c.43.43 1.13.43 1.56 0 .43-.43.43-1.13 0-1.56l-.43-.43H14.5c.6 0 1.1-.5 1.1-1.1s-.5-1.1-1.1-1.1h-3.71l.43-.43c.43-.43.43-1.13 0-1.56-.22-.22-.5-.33-.78-.33s-.56.11-.78.33l-2.22 2.22c-.43.43-.43 1.13 0 1.56l2.22 2.22z"/>
  <path d="M12 2C6.48 2 2 6.48 2 12s4.48 10 10 10 10-4.48 10-10S17.52 2 12 2zm0 18c-4.41 0-8-3.59-8-8s3.59-8 8-8 8 3.59 8 8-3.59 8-8 8z"/>
</svg>
